<?xml version="1.0" encoding="UTF-8"?>
<svg id="a" xmlns="http://www.w3.org/2000/svg" version="1.1" viewBox="0 0 512 512">
  <!-- Generator: Adobe Illustrator 30.2.1, SVG Export Plug-In . SVG Version: 2.1.1 Build 1)  -->
  <defs>
    <style>
      .st0 {
        fill: #fbfcfe;
      }

      .st1 {
        fill: #4ca85b;
      }
    </style>
  </defs>
  <path class="st1" d="M0,512V0h512V512H0ZM355.8,296.2c27.2-43.4,23.7-99.4-8.2-138.9-22.7-28.2-56.4-44.2-92.1-44.1-35.4.1-68.7,16.2-91.2,44.1-33.6,41.6-35.4,101.1-4.3,144.7,23.2,32.5,60.4,51.1,100.2,49.6,38.5-1.4,74.4-21.7,95.6-55.5h0ZM439.3,229.7c1.2,75.1-42.5,143.2-110.9,173-45.3,19.8-97.4,20.1-142.9.9-69.8-29.5-114.3-98.6-112.8-174.1-6.5-.3-12.7-.5-18.8.1-.9,59.3,23.5,114.7,65.9,153.9,82,75.7,209.6,69.9,284.8-12.5,34.9-38.3,54.4-88.8,53.4-141.5-6.5,0-12.5-.6-18.8.3h0ZM397.3,229.6c1.1,60.9-35.6,115.4-92.1,136.7-33,12.4-69.5,11.9-102.1-1.4-54.9-22.5-89.7-76.4-88.4-135.5h-18.7c-1.4,61.6,32.4,118.8,87.4,147.2,40.9,21.1,89.5,23.3,132.2,6,62.1-25.2,102-86.4,100.4-153.3-6.5-.1-12.4-.6-18.7.3h0Z"/>
  <path class="st0" d="M355.8,296.2c-21.2,33.8-57.1,54.1-95.6,55.5-39.8,1.4-77.1-17.1-100.2-49.6-31.1-43.6-29.3-103.1,4.3-144.7,22.5-27.9,55.8-43.9,91.2-44.1,35.7-.1,69.4,15.9,92.1,44.1,31.8,39.5,35.4,95.5,8.2,138.9h0ZM328,301.5c39-41.6,35.6-107.2-7-144.6-37.1-32.6-92.2-32.8-129.5-.5-43.2,37.4-46.6,103.2-7.8,144.9,38.9,41.8,104.9,42.3,144.3.2h0Z"/>
  <path class="st0" d="M439.3,229.7c6.3-.9,12.3-.4,18.8-.3,1,52.7-18.5,103.2-53.4,141.5-75.2,82.5-202.7,88.2-284.8,12.5-42.4-39.1-66.8-94.5-65.9-153.9,6.1-.6,12.3-.4,18.8-.1-1.4,75.5,43,144.6,112.8,174.1,45.5,19.2,97.6,18.9,142.9-.9,68.4-29.8,112.1-97.9,110.9-173h0Z"/>
  <path class="st0" d="M397.3,229.6c6.3-.8,12.2-.4,18.7-.3,1.5,66.8-38.4,128.1-100.4,153.3-42.7,17.3-91.3,15.2-132.2-6-55-28.4-88.8-85.7-87.4-147.4h18.7c-1.2,59.2,33.5,113.1,88.4,135.6,32.6,13.3,69.2,13.8,102.1,1.4,56.5-21.3,93.3-75.8,92.1-136.7h0Z"/>
  <path class="st1" d="M328,301.5c-39.4,42.1-105.4,41.5-144.3-.2-38.8-41.7-35.4-107.5,7.8-144.9,37.3-32.3,92.4-32.1,129.5.5,42.6,37.4,46,103,7,144.7h0ZM255.9,258.9c3.4-9.6,2.7-19.7-3.7-27-13.8-16-45.3-9.9-43.4-25.5,1.5-12.5,23.6-7.8,32.4-1.3,4-4.6,7.7-8.9,11.3-14.2-12.7-9.3-28.8-12.7-43.6-8.4-13,3.8-20.3,15.3-19.6,28.3,2.1,35.3,58.4,20.5,48.1,42.7-1,2.1-3.8,4.3-7,4.9-11.7,2.4-22.9-2-32.5-9.5l-11.1,14c18.3,17.6,60.2,21,69.1-4.1h0ZM325.2,257.6l-34.3-.2v-75.3s-20.2,0-20.2,0v93.8s55,0,55,0c0-6.3.8-12.2-.5-18.2Z"/>
  <path class="st0" d="M255.9,258.9c-8.9,25.1-50.8,21.7-69.1,4.1l11.1-14c9.6,7.5,20.8,11.9,32.5,9.5,3.2-.7,6.1-2.8,7-4.9,10.3-22.3-46-7.4-48.1-42.7-.8-13.1,6.5-24.6,19.6-28.3,14.8-4.3,30.9-.9,43.6,8.4-3.6,5.3-7.2,9.6-11.3,14.2-8.8-6.5-30.9-11.2-32.4,1.3-1.9,15.6,29.6,9.5,43.4,25.5,6.3,7.4,7,17.5,3.7,27h0Z"/>
  <path class="st0" d="M325.2,257.6c1.3,5.9.4,11.8.5,18.2h-55s0-93.7,0-93.7h20.2c0,0,0,75.4,0,75.4l34.3.2Z"/>
</svg>